<svg width="259" height="53" viewBox="0 0 259 53" fill="none" xmlns="http://www.w3.org/2000/svg">
<path d="M12.5599 51C11.4322 51 10.5275 50.0682 10.5607 48.941L10.9687 35.1133C10.9883 34.45 11.3356 33.8396 11.8958 33.4839L29.072 22.5779C29.6499 22.211 30 21.5741 30 20.8895V7.04884C30 6.35696 30.3576 5.71422 30.9455 5.34942L36.9163 1.64448C37.5539 1.24885 38.3593 1.2434 39.0022 1.63037L54.0371 10.6801C54.6382 11.0419 55.0057 11.6922 55.0057 12.3937V18.6181C55.0057 19.2845 55.3376 19.9071 55.8908 20.2785L58.0396 21.7215C58.5928 22.0929 58.9247 22.7155 58.9247 23.3819V32.9258C58.9247 33.6813 59.3503 34.3723 60.025 34.7121L64.141 36.785C64.7913 37.1125 65.2122 37.7674 65.24 38.495L65.6382 48.9237C65.6815 50.0574 64.7741 51 63.6396 51H12.5599Z" fill="url(#paint0_linear_79_2428)"/>
<path d="M20 53C18.8954 53 18 52.1046 18 51V25.6154C18 24.9261 18.3549 24.2854 18.9392 23.9199L26.9392 18.9149C28.2713 18.0815 30 19.0391 30 20.6104V51C30 52.1046 29.1046 53 28 53H20Z" fill="url(#paint1_linear_79_2428)"/>
<path d="M36 3.32677C36 1.81846 37.606 0.852953 38.9381 1.56043L53.9381 9.52694C54.5915 9.87398 55 10.5534 55 11.2933V49C55 50.1046 54.1046 51 53 51H38C36.8954 51 36 50.1046 36 49V3.32677Z" fill="#00AEF0"/>
<path d="M48 19.1303C48 18.6962 48.5151 18.4683 48.8363 18.7603C48.9406 18.8551 49 18.9894 49 19.1303V21.8697C49 22.3038 48.4849 22.5317 48.1637 22.2397C48.0594 22.1449 48 22.0106 48 21.8697V19.1303Z" fill="white"/>
<path d="M43 17.1303C43 16.6962 43.5151 16.4683 43.8363 16.7603C43.9406 16.8551 44 16.9894 44 17.1303V19.8697C44 20.3038 43.4849 20.5317 43.1637 20.2397C43.0594 20.1449 43 20.0106 43 19.8697V17.1303Z" fill="white"/>
<path d="M48 26.1303C48 25.6962 48.5151 25.4683 48.8363 25.7603C48.9406 25.8551 49 25.9894 49 26.1303V28.8697C49 29.3038 48.4849 29.5317 48.1637 29.2397C48.0594 29.1449 48 29.0106 48 28.8697V26.1303Z" fill="white"/>
<path d="M43 24.1303C43 23.6962 43.5151 23.4683 43.8363 23.7603C43.9406 23.8551 44 23.9894 44 24.1303V26.8697C44 27.3038 43.4849 27.5317 43.1637 27.2397C43.0594 27.1449 43 27.0106 43 26.8697V24.1303Z" fill="white"/>
<path d="M43 31.1303C43 30.6962 43.5151 30.4683 43.8363 30.7603C43.9406 30.8551 44 30.9894 44 31.1303V33.8697C44 34.3038 43.4849 34.5317 43.1637 34.2397C43.0594 34.1449 43 34.0106 43 33.8697V31.1303Z" fill="white"/>
<path d="M48 33.1303C48 32.6962 48.5151 32.4683 48.8363 32.7603C48.9406 32.8551 49 32.9894 49 33.1303V35.8697C49 36.3038 48.4849 36.5317 48.1637 36.2397C48.0594 36.1449 48 36.0106 48 35.8697V33.1303Z" fill="white"/>
<path d="M37.5 46C14.8897 46 0 53 0 53H75C75 53 60.1103 46 37.5 46Z" fill="black"/>
<path d="M3 52C3 52 16.6985 46 37.5 46C58.3015 46 72 52 72 52" stroke="url(#paint2_linear_79_2428)" stroke-linecap="round"/>
<path opacity="0.9" d="M81.2195 11.6364H83.9602L87.6307 20.5952H87.7756L91.446 11.6364H94.1868V24H92.0376V15.506H91.9229L88.506 23.9638H86.9002L83.4833 15.4879H83.3686V24H81.2195V11.6364ZM99.1974 24.1871C98.6098 24.1871 98.0806 24.0825 97.6097 23.8732C97.1429 23.6599 96.7726 23.346 96.4989 22.9315C96.2293 22.5169 96.0945 22.0058 96.0945 21.3981C96.0945 20.8749 96.1911 20.4422 96.3842 20.1001C96.5774 19.758 96.841 19.4844 97.1751 19.2791C97.5091 19.0739 97.8854 18.9189 98.304 18.8143C98.7266 18.7056 99.1632 18.6271 99.614 18.5788C100.157 18.5225 100.598 18.4722 100.936 18.4279C101.274 18.3796 101.52 18.3072 101.673 18.2106C101.83 18.11 101.908 17.955 101.908 17.7457V17.7095C101.908 17.2547 101.773 16.9026 101.504 16.6531C101.234 16.4035 100.846 16.2788 100.338 16.2788C99.8031 16.2788 99.3786 16.3955 99.0646 16.6289C98.7547 16.8623 98.5455 17.138 98.4368 17.456L96.3963 17.1662C96.5573 16.6027 96.8229 16.1319 97.1932 15.7536C97.5634 15.3712 98.0162 15.0855 98.5515 14.8963C99.0868 14.7031 99.6784 14.6065 100.326 14.6065C100.773 14.6065 101.218 14.6589 101.661 14.7635C102.103 14.8681 102.508 15.0412 102.874 15.2827C103.24 15.5201 103.534 15.8441 103.755 16.2546C103.981 16.6651 104.093 17.1783 104.093 17.794V24H101.993V22.7262H101.92C101.787 22.9838 101.6 23.2253 101.359 23.4506C101.121 23.672 100.821 23.8511 100.459 23.9879C100.101 24.1207 99.6804 24.1871 99.1974 24.1871ZM99.7649 22.5813C100.204 22.5813 100.584 22.4948 100.906 22.3217C101.228 22.1446 101.475 21.9112 101.648 21.6214C101.826 21.3317 101.914 21.0157 101.914 20.6737V19.581C101.846 19.6373 101.729 19.6896 101.564 19.7379C101.403 19.7862 101.222 19.8285 101.021 19.8647C100.819 19.9009 100.62 19.9331 100.423 19.9613C100.226 19.9895 100.055 20.0136 99.9098 20.0337C99.5838 20.078 99.292 20.1504 99.0344 20.2511C98.7769 20.3517 98.5736 20.4925 98.4247 20.6737C98.2758 20.8507 98.2013 21.0801 98.2013 21.3619C98.2013 21.7643 98.3482 22.0682 98.642 22.2734C98.9358 22.4787 99.3101 22.5813 99.7649 22.5813ZM108.476 18.5668V24H106.291V14.7273H108.38V16.3029H108.488C108.702 15.7837 109.042 15.3712 109.509 15.0653C109.979 14.7595 110.561 14.6065 111.253 14.6065C111.893 14.6065 112.451 14.7434 112.925 15.017C113.404 15.2907 113.775 15.6871 114.036 16.2063C114.302 16.7255 114.433 17.3554 114.429 18.0959V24H112.243V18.4339C112.243 17.8142 112.082 17.3292 111.76 16.979C111.442 16.6289 111.002 16.4538 110.438 16.4538C110.056 16.4538 109.716 16.5384 109.418 16.7074C109.124 16.8724 108.893 17.1119 108.724 17.4258C108.559 17.7397 108.476 18.12 108.476 18.5668ZM121.281 14.7273V16.4176H115.95V14.7273H121.281ZM117.266 12.5057H119.451V21.2109C119.451 21.5047 119.496 21.7301 119.584 21.8871C119.677 22.04 119.797 22.1446 119.946 22.201C120.095 22.2573 120.26 22.2855 120.441 22.2855C120.578 22.2855 120.703 22.2754 120.816 22.2553C120.932 22.2352 121.021 22.2171 121.081 22.201L121.45 23.9094C121.333 23.9497 121.166 23.994 120.949 24.0423C120.735 24.0906 120.474 24.1187 120.164 24.1268C119.616 24.1429 119.123 24.0604 118.685 23.8793C118.246 23.6941 117.898 23.4084 117.64 23.022C117.387 22.6357 117.262 22.1527 117.266 21.5732V12.5057ZM123.108 24V14.7273H125.294V24H123.108ZM124.207 13.4112C123.861 13.4112 123.563 13.2965 123.313 13.0671C123.064 12.8337 122.939 12.554 122.939 12.228C122.939 11.898 123.064 11.6183 123.313 11.3888C123.563 11.1554 123.861 11.0387 124.207 11.0387C124.557 11.0387 124.855 11.1554 125.1 11.3888C125.35 11.6183 125.475 11.898 125.475 12.228C125.475 12.554 125.35 12.8337 125.1 13.0671C124.855 13.2965 124.557 13.4112 124.207 13.4112ZM134.87 17.1783L132.877 17.3956C132.821 17.1944 132.723 17.0052 132.582 16.8281C132.445 16.651 132.26 16.5082 132.026 16.3995C131.793 16.2908 131.507 16.2365 131.169 16.2365C130.714 16.2365 130.332 16.3351 130.022 16.5323C129.716 16.7295 129.565 16.9851 129.569 17.299C129.565 17.5687 129.664 17.788 129.865 17.957C130.07 18.1261 130.408 18.2649 130.879 18.3736L132.461 18.7116C133.338 18.9008 133.99 19.2006 134.417 19.6112C134.848 20.0217 135.065 20.5589 135.069 21.223C135.065 21.8066 134.894 22.3217 134.556 22.7685C134.222 23.2112 133.757 23.5573 133.161 23.8068C132.566 24.0563 131.881 24.1811 131.109 24.1811C129.974 24.1811 129.06 23.9437 128.368 23.4688C127.676 22.9898 127.263 22.3237 127.13 21.4705L129.261 21.2653C129.358 21.6838 129.563 21.9998 129.877 22.2131C130.191 22.4264 130.6 22.533 131.103 22.533C131.622 22.533 132.038 22.4264 132.352 22.2131C132.67 21.9998 132.829 21.7362 132.829 21.4222C132.829 21.1566 132.727 20.9373 132.521 20.7642C132.32 20.5911 132.006 20.4583 131.58 20.3658L129.998 20.0337C129.108 19.8486 128.45 19.5367 128.024 19.098C127.597 18.6553 127.386 18.0959 127.39 17.4197C127.386 16.8482 127.541 16.3532 127.855 15.9347C128.173 15.5121 128.613 15.1861 129.177 14.9567C129.744 14.7232 130.398 14.6065 131.139 14.6065C132.225 14.6065 133.081 14.8379 133.705 15.3008C134.332 15.7636 134.721 16.3894 134.87 17.1783ZM149.467 15.5845C149.366 15.2585 149.228 14.9667 149.05 14.7092C148.877 14.4476 148.668 14.2242 148.423 14.0391C148.181 13.8539 147.903 13.7151 147.589 13.6225C147.276 13.5259 146.933 13.4776 146.563 13.4776C145.899 13.4776 145.308 13.6446 144.788 13.9787C144.269 14.3127 143.861 14.8037 143.563 15.4517C143.269 16.0956 143.122 16.8804 143.122 17.8061C143.122 18.7398 143.269 19.5307 143.563 20.1786C143.857 20.8266 144.265 21.3196 144.788 21.6577C145.312 21.9917 145.919 22.1587 146.612 22.1587C147.239 22.1587 147.783 22.038 148.241 21.7965C148.704 21.555 149.06 21.2129 149.31 20.7702C149.56 20.3235 149.684 19.8003 149.684 19.2006L150.191 19.2791H146.835V17.5284H151.852V19.0135C151.852 20.072 151.626 20.9876 151.175 21.7603C150.725 22.533 150.105 23.1287 149.316 23.5472C148.527 23.9618 147.622 24.169 146.599 24.169C145.46 24.169 144.46 23.9135 143.599 23.4023C142.742 22.8872 142.072 22.1567 141.589 21.2109C141.11 20.2611 140.87 19.1342 140.87 17.8303C140.87 16.8321 141.011 15.9407 141.293 15.1559C141.579 14.3711 141.977 13.705 142.488 13.1577C142.999 12.6063 143.599 12.1877 144.287 11.902C144.975 11.6122 145.724 11.4673 146.533 11.4673C147.217 11.4673 147.855 11.5679 148.447 11.7692C149.038 11.9664 149.564 12.2481 150.022 12.6143C150.485 12.9806 150.866 13.4152 151.163 13.9183C151.461 14.4214 151.656 14.9768 151.749 15.5845H149.467ZM153.921 24V14.7273H156.04V16.2727H156.136C156.305 15.7375 156.595 15.3249 157.006 15.0352C157.42 14.7414 157.893 14.5945 158.424 14.5945C158.545 14.5945 158.68 14.6005 158.829 14.6126C158.982 14.6206 159.108 14.6347 159.209 14.6548V16.6651C159.117 16.6329 158.97 16.6048 158.768 16.5806C158.571 16.5524 158.38 16.5384 158.195 16.5384C157.796 16.5384 157.438 16.6249 157.12 16.7979C156.806 16.967 156.559 17.2024 156.378 17.5043C156.197 17.8061 156.106 18.1542 156.106 18.5487V24H153.921ZM164.324 24.1811C163.418 24.1811 162.634 23.9819 161.969 23.5835C161.305 23.185 160.79 22.6276 160.424 21.9112C160.062 21.1948 159.881 20.3577 159.881 19.3999C159.881 18.442 160.062 17.6029 160.424 16.8825C160.79 16.162 161.305 15.6026 161.969 15.2042C162.634 14.8058 163.418 14.6065 164.324 14.6065C165.229 14.6065 166.014 14.8058 166.678 15.2042C167.342 15.6026 167.855 16.162 168.218 16.8825C168.584 17.6029 168.767 18.442 168.767 19.3999C168.767 20.3577 168.584 21.1948 168.218 21.9112C167.855 22.6276 167.342 23.185 166.678 23.5835C166.014 23.9819 165.229 24.1811 164.324 24.1811ZM164.336 22.4304C164.827 22.4304 165.237 22.2956 165.567 22.0259C165.897 21.7522 166.143 21.386 166.304 20.9272C166.469 20.4684 166.551 19.9573 166.551 19.3938C166.551 18.8263 166.469 18.3132 166.304 17.8544C166.143 17.3916 165.897 17.0233 165.567 16.7496C165.237 16.476 164.827 16.3391 164.336 16.3391C163.833 16.3391 163.414 16.476 163.08 16.7496C162.75 17.0233 162.503 17.3916 162.338 17.8544C162.177 18.3132 162.096 18.8263 162.096 19.3938C162.096 19.9573 162.177 20.4684 162.338 20.9272C162.503 21.386 162.75 21.7522 163.08 22.0259C163.414 22.2956 163.833 22.4304 164.336 22.4304ZM176.532 20.1001V14.7273H178.717V24H176.598V22.3519H176.502C176.293 22.8711 175.948 23.2957 175.47 23.6257C174.995 23.9557 174.409 24.1207 173.713 24.1207C173.105 24.1207 172.568 23.9859 172.101 23.7163C171.638 23.4426 171.276 23.0462 171.014 22.527C170.753 22.0038 170.622 21.3719 170.622 20.6314V14.7273H172.807V20.2933C172.807 20.8809 172.968 21.3478 173.29 21.6939C173.612 22.04 174.035 22.2131 174.558 22.2131C174.88 22.2131 175.192 22.1346 175.494 21.9776C175.796 21.8207 176.043 21.5872 176.236 21.2773C176.433 20.9634 176.532 20.571 176.532 20.1001ZM180.965 27.4773V14.7273H183.114V16.2607H183.241C183.353 16.0353 183.512 15.7958 183.718 15.5423C183.923 15.2847 184.2 15.0653 184.551 14.8842C184.901 14.6991 185.347 14.6065 185.891 14.6065C186.607 14.6065 187.253 14.7897 187.829 15.1559C188.408 15.5181 188.867 16.0554 189.205 16.7678C189.547 17.4761 189.718 18.3454 189.718 19.3757C189.718 20.3939 189.551 21.2592 189.217 21.9716C188.883 22.6839 188.428 23.2273 187.853 23.6016C187.277 23.9759 186.625 24.163 185.897 24.163C185.366 24.163 184.925 24.0745 184.575 23.8974C184.225 23.7203 183.943 23.507 183.73 23.2575C183.52 23.0039 183.357 22.7644 183.241 22.5391H183.15V27.4773H180.965ZM183.108 19.3636C183.108 19.9633 183.192 20.4885 183.361 20.9393C183.534 21.39 183.782 21.7422 184.104 21.9957C184.43 22.2453 184.824 22.37 185.287 22.37C185.77 22.37 186.175 22.2412 186.501 21.9837C186.827 21.7221 187.072 21.3659 187.237 20.9151C187.406 20.4603 187.491 19.9432 187.491 19.3636C187.491 18.7881 187.408 18.277 187.243 17.8303C187.078 17.3835 186.833 17.0334 186.507 16.7798C186.181 16.5263 185.774 16.3995 185.287 16.3995C184.82 16.3995 184.424 16.5223 184.098 16.7678C183.772 17.0133 183.524 17.3574 183.355 17.8001C183.19 18.2428 183.108 18.764 183.108 19.3636Z" fill="white"/>
<path opacity="0.3" d="M81.233 45V34.8182H84.6733C85.4688 34.8182 86.1217 34.9541 86.6321 35.2259C87.1425 35.4943 87.5204 35.8639 87.7656 36.3345C88.0109 36.8052 88.1335 37.3404 88.1335 37.9403C88.1335 38.5402 88.0109 39.0722 87.7656 39.5362C87.5204 40.0002 87.1442 40.3648 86.6371 40.63C86.13 40.8918 85.482 41.0227 84.6932 41.0227H81.9091V39.9091H84.6534C85.197 39.9091 85.6345 39.8295 85.9659 39.6705C86.3007 39.5114 86.5426 39.286 86.6918 38.9943C86.8442 38.6993 86.9205 38.348 86.9205 37.9403C86.9205 37.5327 86.8442 37.1764 86.6918 36.8714C86.5393 36.5665 86.2957 36.3312 85.9609 36.1655C85.6262 35.9964 85.1837 35.9119 84.6335 35.9119H82.4659V45H81.233ZM86.0256 40.4261L88.5312 45H87.0994L84.6335 40.4261H86.0256ZM93.1486 45.1591C92.4128 45.1591 91.7781 44.9967 91.2445 44.6719C90.7142 44.3438 90.3049 43.8864 90.0165 43.2997C89.7315 42.7098 89.589 42.0237 89.589 41.2415C89.589 40.4593 89.7315 39.7699 90.0165 39.1733C90.3049 38.5734 90.7059 38.1061 91.2196 37.7713C91.7367 37.4332 92.3399 37.2642 93.0293 37.2642C93.427 37.2642 93.8198 37.3305 94.2076 37.4631C94.5953 37.5956 94.9483 37.8111 95.2665 38.1094C95.5847 38.4044 95.8382 38.7955 96.0272 39.2827C96.2161 39.7699 96.3105 40.3698 96.3105 41.0824V41.5795H90.4242V40.5653H95.1174C95.1174 40.1345 95.0312 39.75 94.8588 39.4119C94.6898 39.0739 94.4479 38.8071 94.133 38.6115C93.8214 38.416 93.4535 38.3182 93.0293 38.3182C92.562 38.3182 92.1576 38.4342 91.8162 38.6662C91.4782 38.8949 91.218 39.1932 91.0357 39.5611C90.8534 39.929 90.7623 40.3234 90.7623 40.7443V41.4205C90.7623 41.9972 90.8617 42.486 91.0605 42.8871C91.2627 43.2848 91.5428 43.5881 91.9007 43.7969C92.2587 44.0024 92.6747 44.1051 93.1486 44.1051C93.4569 44.1051 93.7353 44.062 93.9838 43.9759C94.2357 43.8864 94.4528 43.7538 94.6351 43.5781C94.8174 43.3991 94.9583 43.1771 95.0577 42.9119L96.1912 43.2301C96.0719 43.6146 95.8714 43.9527 95.5897 44.2443C95.3079 44.5327 94.9599 44.758 94.5456 44.9205C94.1313 45.0795 93.6657 45.1591 93.1486 45.1591ZM100.343 45.179C99.8586 45.179 99.4194 45.0878 99.025 44.9055C98.6306 44.7199 98.3174 44.4531 98.0854 44.1051C97.8534 43.7538 97.7374 43.3295 97.7374 42.8324C97.7374 42.3949 97.8236 42.0402 97.9959 41.7685C98.1683 41.4934 98.3986 41.2779 98.687 41.1222C98.9753 40.9664 99.2935 40.8504 99.6415 40.7741C99.9928 40.6946 100.346 40.6316 100.7 40.5852C101.164 40.5256 101.541 40.4808 101.829 40.451C102.121 40.4179 102.333 40.3632 102.465 40.2869C102.601 40.2107 102.669 40.0781 102.669 39.8892V39.8494C102.669 39.3589 102.535 38.9777 102.267 38.706C102.001 38.4342 101.599 38.2983 101.058 38.2983C100.498 38.2983 100.059 38.4209 99.7409 38.6662C99.4228 38.9115 99.199 39.1733 99.0698 39.4517L97.9561 39.054C98.155 38.59 98.4202 38.2287 98.7516 37.9702C99.0864 37.7083 99.4509 37.526 99.8453 37.4233C100.243 37.3172 100.634 37.2642 101.019 37.2642C101.264 37.2642 101.546 37.294 101.864 37.3537C102.185 37.41 102.495 37.5277 102.794 37.7067C103.095 37.8857 103.345 38.1558 103.544 38.517C103.743 38.8783 103.843 39.3622 103.843 39.9688V45H102.669V43.9659H102.61C102.53 44.1316 102.397 44.3089 102.212 44.4979C102.026 44.6868 101.779 44.8475 101.471 44.9801C101.163 45.1127 100.787 45.179 100.343 45.179ZM100.521 44.125C100.985 44.125 101.377 44.0339 101.695 43.8516C102.016 43.6693 102.258 43.4339 102.421 43.1456C102.586 42.8572 102.669 42.554 102.669 42.2358V41.1619C102.619 41.2216 102.51 41.2763 102.341 41.326C102.175 41.3724 101.983 41.4138 101.764 41.4503C101.549 41.4834 101.338 41.5133 101.133 41.5398C100.931 41.563 100.767 41.5829 100.641 41.5994C100.336 41.6392 100.051 41.7038 99.7857 41.7933C99.5239 41.8795 99.3117 42.0104 99.1493 42.1861C98.9902 42.3584 98.9107 42.5937 98.9107 42.892C98.9107 43.2997 99.0615 43.608 99.3631 43.8168C99.668 44.0223 100.054 44.125 100.521 44.125ZM107.157 34.8182V45H105.984V34.8182H107.157ZM113.403 45V34.8182H119.548V35.9119H114.636V39.3523H119.23V40.446H114.636V43.9062H119.627V45H113.403ZM127.02 39.0739L125.966 39.3722C125.9 39.1965 125.802 39.0258 125.673 38.8601C125.547 38.6911 125.374 38.5518 125.156 38.4425C124.937 38.3331 124.657 38.2784 124.316 38.2784C123.848 38.2784 123.459 38.3861 123.147 38.6016C122.839 38.8137 122.685 39.0838 122.685 39.4119C122.685 39.7036 122.791 39.9339 123.003 40.103C123.215 40.272 123.547 40.4129 123.997 40.5256L125.131 40.804C125.814 40.9697 126.322 41.2232 126.657 41.5646C126.992 41.9027 127.159 42.3385 127.159 42.8722C127.159 43.3097 127.033 43.7008 126.781 44.0455C126.533 44.3902 126.185 44.6619 125.737 44.8608C125.29 45.0597 124.77 45.1591 124.176 45.1591C123.397 45.1591 122.753 44.9901 122.242 44.652C121.732 44.3139 121.409 43.8201 121.273 43.1705L122.387 42.892C122.493 43.303 122.693 43.6113 122.988 43.8168C123.286 44.0223 123.676 44.125 124.156 44.125C124.703 44.125 125.137 44.009 125.459 43.777C125.784 43.5417 125.946 43.2599 125.946 42.9318C125.946 42.6667 125.853 42.4446 125.668 42.2656C125.482 42.0833 125.197 41.9474 124.813 41.858L123.54 41.5597C122.841 41.3939 122.327 41.1371 121.999 40.7891C121.674 40.4377 121.512 39.9986 121.512 39.4716C121.512 39.0407 121.633 38.6596 121.874 38.3281C122.12 37.9967 122.453 37.7365 122.874 37.5476C123.298 37.3587 123.779 37.2642 124.316 37.2642C125.071 37.2642 125.664 37.4299 126.095 37.7614C126.53 38.0928 126.838 38.5303 127.02 39.0739ZM132.246 37.3636V38.358H128.289V37.3636H132.246ZM129.442 35.5341H130.616V42.8125C130.616 43.1439 130.664 43.3925 130.76 43.5582C130.859 43.7206 130.985 43.83 131.138 43.8864C131.294 43.9394 131.458 43.9659 131.63 43.9659C131.759 43.9659 131.865 43.9593 131.948 43.946C132.031 43.9295 132.097 43.9162 132.147 43.9062L132.386 44.9602C132.306 44.9901 132.195 45.0199 132.053 45.0497C131.91 45.0829 131.729 45.0994 131.511 45.0994C131.179 45.0994 130.854 45.0282 130.536 44.8857C130.221 44.7431 129.96 44.526 129.751 44.2344C129.545 43.9427 129.442 43.5748 129.442 43.1307V35.5341ZM136.259 45.179C135.775 45.179 135.335 45.0878 134.941 44.9055C134.547 44.7199 134.233 44.4531 134.001 44.1051C133.769 43.7538 133.653 43.3295 133.653 42.8324C133.653 42.3949 133.74 42.0402 133.912 41.7685C134.084 41.4934 134.315 41.2779 134.603 41.1222C134.891 40.9664 135.21 40.8504 135.558 40.7741C135.909 40.6946 136.262 40.6316 136.616 40.5852C137.08 40.5256 137.457 40.4808 137.745 40.451C138.037 40.4179 138.249 40.3632 138.381 40.2869C138.517 40.2107 138.585 40.0781 138.585 39.8892V39.8494C138.585 39.3589 138.451 38.9777 138.183 38.706C137.917 38.4342 137.515 38.2983 136.974 38.2983C136.414 38.2983 135.975 38.4209 135.657 38.6662C135.339 38.9115 135.115 39.1733 134.986 39.4517L133.872 39.054C134.071 38.59 134.336 38.2287 134.668 37.9702C135.002 37.7083 135.367 37.526 135.761 37.4233C136.159 37.3172 136.55 37.2642 136.935 37.2642C137.18 37.2642 137.462 37.294 137.78 37.3537C138.101 37.41 138.411 37.5277 138.71 37.7067C139.011 37.8857 139.261 38.1558 139.46 38.517C139.659 38.8783 139.759 39.3622 139.759 39.9688V45H138.585V43.9659H138.526C138.446 44.1316 138.313 44.3089 138.128 44.4979C137.942 44.6868 137.695 44.8475 137.387 44.9801C137.079 45.1127 136.703 45.179 136.259 45.179ZM136.438 44.125C136.902 44.125 137.293 44.0339 137.611 43.8516C137.932 43.6693 138.174 43.4339 138.337 43.1456C138.502 42.8572 138.585 42.554 138.585 42.2358V41.1619C138.536 41.2216 138.426 41.2763 138.257 41.326C138.091 41.3724 137.899 41.4138 137.68 41.4503C137.465 41.4834 137.254 41.5133 137.049 41.5398C136.847 41.563 136.683 41.5829 136.557 41.5994C136.252 41.6392 135.967 41.7038 135.702 41.7933C135.44 41.8795 135.228 42.0104 135.065 42.1861C134.906 42.3584 134.827 42.5937 134.827 42.892C134.827 43.2997 134.978 43.608 135.279 43.8168C135.584 44.0223 135.97 44.125 136.438 44.125ZM145.221 37.3636V38.358H141.264V37.3636H145.221ZM142.417 35.5341H143.59V42.8125C143.59 43.1439 143.638 43.3925 143.735 43.5582C143.834 43.7206 143.96 43.83 144.112 43.8864C144.268 43.9394 144.432 43.9659 144.605 43.9659C144.734 43.9659 144.84 43.9593 144.923 43.946C145.006 43.9295 145.072 43.9162 145.122 43.9062L145.36 44.9602C145.281 44.9901 145.17 45.0199 145.027 45.0497C144.885 45.0829 144.704 45.0994 144.485 45.0994C144.154 45.0994 143.829 45.0282 143.511 44.8857C143.196 44.7431 142.934 44.526 142.725 44.2344C142.52 43.9427 142.417 43.5748 142.417 43.1307V35.5341ZM150.106 45.1591C149.37 45.1591 148.735 44.9967 148.202 44.6719C147.671 44.3438 147.262 43.8864 146.974 43.2997C146.689 42.7098 146.546 42.0237 146.546 41.2415C146.546 40.4593 146.689 39.7699 146.974 39.1733C147.262 38.5734 147.663 38.1061 148.177 37.7713C148.694 37.4332 149.297 37.2642 149.986 37.2642C150.384 37.2642 150.777 37.3305 151.165 37.4631C151.552 37.5956 151.905 37.8111 152.224 38.1094C152.542 38.4044 152.795 38.7955 152.984 39.2827C153.173 39.7699 153.268 40.3698 153.268 41.0824V41.5795H147.381V40.5653H152.074C152.074 40.1345 151.988 39.75 151.816 39.4119C151.647 39.0739 151.405 38.8071 151.09 38.6115C150.778 38.416 150.411 38.3182 149.986 38.3182C149.519 38.3182 149.115 38.4342 148.773 38.6662C148.435 38.8949 148.175 39.1932 147.993 39.5611C147.81 39.929 147.719 40.3234 147.719 40.7443V41.4205C147.719 41.9972 147.819 42.486 148.018 42.8871C148.22 43.2848 148.5 43.5881 148.858 43.7969C149.216 44.0024 149.632 44.1051 150.106 44.1051C150.414 44.1051 150.692 44.062 150.941 43.9759C151.193 43.8864 151.41 43.7538 151.592 43.5781C151.774 43.3991 151.915 43.1771 152.015 42.9119L153.148 43.2301C153.029 43.6146 152.828 43.9527 152.547 44.2443C152.265 44.5327 151.917 44.758 151.503 44.9205C151.088 45.0795 150.623 45.1591 150.106 45.1591ZM161.873 45.1392C161.204 45.1392 160.627 45.0166 160.143 44.7713C159.659 44.526 159.287 44.1896 159.025 43.7621C158.763 43.3345 158.632 42.8456 158.632 42.2955C158.632 41.8712 158.721 41.495 158.9 41.1669C159.083 40.8355 159.333 40.5289 159.651 40.2472C159.973 39.9621 160.342 39.6771 160.76 39.392L162.231 38.2983C162.52 38.1094 162.75 37.9072 162.922 37.6918C163.098 37.4763 163.186 37.1946 163.186 36.8466C163.186 36.5881 163.072 36.3378 162.843 36.0959C162.617 35.8539 162.321 35.733 161.953 35.733C161.694 35.733 161.466 35.7992 161.267 35.9318C161.071 36.0611 160.917 36.2268 160.805 36.429C160.695 36.6278 160.64 36.8333 160.64 37.0455C160.64 37.2841 160.705 37.526 160.834 37.7713C160.967 38.0133 161.134 38.2618 161.336 38.517C161.542 38.7689 161.754 39.0275 161.973 39.2926L166.646 45H165.234L161.376 40.3466C161.018 39.9157 160.693 39.5246 160.402 39.1733C160.11 38.822 159.878 38.4756 159.706 38.1342C159.533 37.7929 159.447 37.4233 159.447 37.0256C159.447 36.5682 159.548 36.1671 159.751 35.8224C159.956 35.4744 160.243 35.2043 160.611 35.0121C160.982 34.8165 161.416 34.7188 161.913 34.7188C162.424 34.7188 162.863 34.8182 163.231 35.017C163.599 35.2126 163.882 35.4728 164.081 35.7976C164.28 36.1191 164.379 36.4688 164.379 36.8466C164.379 37.3338 164.258 37.7564 164.016 38.1143C163.774 38.4723 163.444 38.8054 163.027 39.1136L160.998 40.625C160.541 40.9631 160.231 41.2912 160.069 41.6094C159.906 41.9276 159.825 42.1562 159.825 42.2955C159.825 42.6136 159.908 42.9103 160.074 43.1854C160.239 43.4605 160.473 43.6825 160.775 43.8516C161.076 44.0206 161.429 44.1051 161.834 44.1051C162.218 44.1051 162.593 44.0239 162.957 43.8615C163.322 43.6958 163.652 43.4571 163.947 43.1456C164.245 42.834 164.48 42.4595 164.653 42.022C164.828 41.5845 164.916 41.0923 164.916 40.5455H166.05C166.05 41.2216 165.972 41.7734 165.816 42.201C165.66 42.6286 165.484 42.9633 165.289 43.2053C165.093 43.4472 164.936 43.6278 164.817 43.7472C164.777 43.7969 164.74 43.8466 164.707 43.8963C164.674 43.946 164.638 43.9957 164.598 44.0455C164.27 44.4134 163.855 44.6884 163.355 44.8707C162.854 45.0497 162.361 45.1392 161.873 45.1392ZM175.184 45H172.042V34.8182H175.323C176.31 34.8182 177.156 35.022 177.858 35.4297C178.561 35.834 179.1 36.4157 179.474 37.1747C179.849 37.9304 180.036 38.8352 180.036 39.8892C180.036 40.9498 179.847 41.8629 179.469 42.6286C179.091 43.3909 178.541 43.9775 177.819 44.3885C177.096 44.7962 176.218 45 175.184 45ZM173.275 43.9062H175.104C175.946 43.9062 176.644 43.7438 177.197 43.419C177.751 43.0942 178.163 42.6319 178.435 42.032C178.707 41.4321 178.843 40.7178 178.843 39.8892C178.843 39.0672 178.708 38.3596 178.44 37.7663C178.172 37.1697 177.77 36.7124 177.237 36.3942C176.703 36.0727 176.039 35.9119 175.243 35.9119H173.275V43.9062ZM185.147 45.1591C184.411 45.1591 183.776 44.9967 183.243 44.6719C182.712 44.3438 182.303 43.8864 182.015 43.2997C181.73 42.7098 181.587 42.0237 181.587 41.2415C181.587 40.4593 181.73 39.7699 182.015 39.1733C182.303 38.5734 182.704 38.1061 183.218 37.7713C183.735 37.4332 184.338 37.2642 185.027 37.2642C185.425 37.2642 185.818 37.3305 186.206 37.4631C186.593 37.5956 186.946 37.8111 187.265 38.1094C187.583 38.4044 187.836 38.7955 188.025 39.2827C188.214 39.7699 188.309 40.3698 188.309 41.0824V41.5795H182.422V40.5653H187.115C187.115 40.1345 187.029 39.75 186.857 39.4119C186.688 39.0739 186.446 38.8071 186.131 38.6115C185.819 38.416 185.452 38.3182 185.027 38.3182C184.56 38.3182 184.156 38.4342 183.814 38.6662C183.476 38.8949 183.216 39.1932 183.034 39.5611C182.851 39.929 182.76 40.3234 182.76 40.7443V41.4205C182.76 41.9972 182.86 42.486 183.059 42.8871C183.261 43.2848 183.541 43.5881 183.899 43.7969C184.257 44.0024 184.673 44.1051 185.147 44.1051C185.455 44.1051 185.733 44.062 185.982 43.9759C186.234 43.8864 186.451 43.7538 186.633 43.5781C186.815 43.3991 186.956 43.1771 187.056 42.9119L188.189 43.2301C188.07 43.6146 187.869 43.9527 187.588 44.2443C187.306 44.5327 186.958 44.758 186.544 44.9205C186.129 45.0795 185.664 45.1591 185.147 45.1591ZM196.105 37.3636L193.281 45H192.088L189.264 37.3636H190.537L192.645 43.4489H192.725L194.833 37.3636H196.105ZM200.582 45.1591C199.846 45.1591 199.212 44.9967 198.678 44.6719C198.148 44.3438 197.738 43.8864 197.45 43.2997C197.165 42.7098 197.023 42.0237 197.023 41.2415C197.023 40.4593 197.165 39.7699 197.45 39.1733C197.738 38.5734 198.14 38.1061 198.653 37.7713C199.17 37.4332 199.773 37.2642 200.463 37.2642C200.861 37.2642 201.253 37.3305 201.641 37.4631C202.029 37.5956 202.382 37.8111 202.7 38.1094C203.018 38.4044 203.272 38.7955 203.461 39.2827C203.65 39.7699 203.744 40.3698 203.744 41.0824V41.5795H197.858V40.5653H202.551C202.551 40.1345 202.465 39.75 202.292 39.4119C202.123 39.0739 201.881 38.8071 201.567 38.6115C201.255 38.416 200.887 38.3182 200.463 38.3182C199.996 38.3182 199.591 38.4342 199.25 38.6662C198.912 38.8949 198.652 39.1932 198.469 39.5611C198.287 39.929 198.196 40.3234 198.196 40.7443V41.4205C198.196 41.9972 198.295 42.486 198.494 42.8871C198.696 43.2848 198.976 43.5881 199.334 43.7969C199.692 44.0024 200.108 44.1051 200.582 44.1051C200.89 44.1051 201.169 44.062 201.417 43.9759C201.669 43.8864 201.886 43.7538 202.069 43.5781C202.251 43.3991 202.392 43.1771 202.491 42.9119L203.625 43.2301C203.506 43.6146 203.305 43.9527 203.023 44.2443C202.742 44.5327 202.394 44.758 201.979 44.9205C201.565 45.0795 201.099 45.1591 200.582 45.1591ZM206.702 34.8182V45H205.529V34.8182H206.702ZM211.953 45.1591C211.264 45.1591 210.659 44.995 210.139 44.6669C209.622 44.3388 209.217 43.8797 208.926 43.2898C208.637 42.6998 208.493 42.0104 208.493 41.2216C208.493 40.4261 208.637 39.7318 208.926 39.1385C209.217 38.5452 209.622 38.0845 210.139 37.7564C210.659 37.4283 211.264 37.2642 211.953 37.2642C212.643 37.2642 213.246 37.4283 213.763 37.7564C214.283 38.0845 214.688 38.5452 214.976 39.1385C215.268 39.7318 215.414 40.4261 215.414 41.2216C215.414 42.0104 215.268 42.6998 214.976 43.2898C214.688 43.8797 214.283 44.3388 213.763 44.6669C213.246 44.995 212.643 45.1591 211.953 45.1591ZM211.953 44.1051C212.477 44.1051 212.908 43.9709 213.246 43.7024C213.584 43.4339 213.834 43.081 213.997 42.6435C214.159 42.206 214.24 41.732 214.24 41.2216C214.24 40.7112 214.159 40.2356 213.997 39.7947C213.834 39.3539 213.584 38.9976 213.246 38.7259C212.908 38.4541 212.477 38.3182 211.953 38.3182C211.43 38.3182 210.999 38.4541 210.661 38.7259C210.323 38.9976 210.073 39.3539 209.91 39.7947C209.748 40.2356 209.667 40.7112 209.667 41.2216C209.667 41.732 209.748 42.206 209.91 42.6435C210.073 43.081 210.323 43.4339 210.661 43.7024C210.999 43.9709 211.43 44.1051 211.953 44.1051ZM217.205 47.8636V37.3636H218.338V38.5767H218.477C218.564 38.4441 218.683 38.2751 218.835 38.0696C218.991 37.8608 219.213 37.6752 219.502 37.5128C219.793 37.3471 220.188 37.2642 220.685 37.2642C221.328 37.2642 221.895 37.425 222.385 37.7464C222.876 38.0679 223.258 38.5237 223.534 39.1136C223.809 39.7036 223.946 40.3996 223.946 41.2017C223.946 42.0104 223.809 42.7114 223.534 43.3047C223.258 43.8946 222.877 44.352 222.39 44.6768C221.903 44.9983 221.341 45.1591 220.705 45.1591C220.214 45.1591 219.821 45.0779 219.526 44.9155C219.231 44.7498 219.004 44.5625 218.845 44.3537C218.686 44.1416 218.564 43.9659 218.477 43.8267H218.378V47.8636H217.205ZM218.358 41.1818C218.358 41.7585 218.443 42.2673 218.612 42.7081C218.781 43.1456 219.028 43.4886 219.352 43.7372C219.677 43.9825 220.075 44.1051 220.546 44.1051C221.036 44.1051 221.445 43.9759 221.774 43.7173C222.105 43.4555 222.354 43.1042 222.519 42.6634C222.688 42.2192 222.773 41.7254 222.773 41.1818C222.773 40.6449 222.69 40.161 222.524 39.7301C222.362 39.2959 222.115 38.9529 221.784 38.701C221.455 38.4458 221.043 38.3182 220.546 38.3182C220.068 38.3182 219.667 38.4392 219.343 38.6811C219.018 38.9197 218.772 39.2545 218.607 39.6854C218.441 40.1129 218.358 40.6117 218.358 41.1818ZM225.736 45V37.3636H226.869V38.5568H226.969C227.128 38.1491 227.385 37.8326 227.74 37.6072C228.094 37.3786 228.52 37.2642 229.017 37.2642C229.521 37.2642 229.94 37.3786 230.275 37.6072C230.613 37.8326 230.877 38.1491 231.066 38.5568H231.145C231.341 38.1624 231.634 37.8492 232.025 37.6172C232.416 37.3819 232.885 37.2642 233.432 37.2642C234.115 37.2642 234.673 37.478 235.107 37.9055C235.542 38.3298 235.759 38.991 235.759 39.8892V45H234.585V39.8892C234.585 39.3258 234.431 38.9231 234.123 38.6811C233.815 38.4392 233.452 38.3182 233.034 38.3182C232.497 38.3182 232.081 38.4806 231.786 38.8054C231.491 39.1269 231.344 39.5346 231.344 40.0284V45H230.151V39.7699C230.151 39.3357 230.01 38.986 229.728 38.7209C229.446 38.4524 229.084 38.3182 228.639 38.3182C228.334 38.3182 228.049 38.3994 227.784 38.5618C227.522 38.7242 227.31 38.9496 227.148 39.2379C226.989 39.523 226.909 39.8527 226.909 40.2273V45H225.736ZM241.106 45.1591C240.37 45.1591 239.735 44.9967 239.202 44.6719C238.671 44.3438 238.262 43.8864 237.974 43.2997C237.689 42.7098 237.546 42.0237 237.546 41.2415C237.546 40.4593 237.689 39.7699 237.974 39.1733C238.262 38.5734 238.663 38.1061 239.177 37.7713C239.694 37.4332 240.297 37.2642 240.986 37.2642C241.384 37.2642 241.777 37.3305 242.165 37.4631C242.552 37.5956 242.905 37.8111 243.224 38.1094C243.542 38.4044 243.795 38.7955 243.984 39.2827C244.173 39.7699 244.268 40.3698 244.268 41.0824V41.5795H238.381V40.5653H243.074C243.074 40.1345 242.988 39.75 242.816 39.4119C242.647 39.0739 242.405 38.8071 242.09 38.6115C241.778 38.416 241.411 38.3182 240.986 38.3182C240.519 38.3182 240.115 38.4342 239.773 38.6662C239.435 38.8949 239.175 39.1932 238.993 39.5611C238.81 39.929 238.719 40.3234 238.719 40.7443V41.4205C238.719 41.9972 238.819 42.486 239.018 42.8871C239.22 43.2848 239.5 43.5881 239.858 43.7969C240.216 44.0024 240.632 44.1051 241.106 44.1051C241.414 44.1051 241.692 44.062 241.941 43.9759C242.193 43.8864 242.41 43.7538 242.592 43.5781C242.774 43.3991 242.915 43.1771 243.015 42.9119L244.148 43.2301C244.029 43.6146 243.828 43.9527 243.547 44.2443C243.265 44.5327 242.917 44.758 242.503 44.9205C242.088 45.0795 241.623 45.1591 241.106 45.1591ZM247.226 40.4062V45H246.052V37.3636H247.186V38.5568H247.285C247.464 38.169 247.736 37.8575 248.101 37.6222C248.465 37.3835 248.936 37.2642 249.513 37.2642C250.03 37.2642 250.482 37.3703 250.87 37.5824C251.258 37.7912 251.559 38.1094 251.775 38.5369C251.99 38.9612 252.098 39.4981 252.098 40.1477V45H250.925V40.2273C250.925 39.6274 250.769 39.16 250.457 38.8253C250.146 38.4872 249.718 38.3182 249.175 38.3182C248.8 38.3182 248.465 38.3994 248.17 38.5618C247.879 38.7242 247.648 38.9612 247.479 39.2727C247.31 39.5843 247.226 39.9621 247.226 40.4062ZM257.563 37.3636V38.358H253.605V37.3636H257.563ZM254.759 35.5341H255.932V42.8125C255.932 43.1439 255.98 43.3925 256.076 43.5582C256.176 43.7206 256.302 43.83 256.454 43.8864C256.61 43.9394 256.774 43.9659 256.946 43.9659C257.076 43.9659 257.182 43.9593 257.265 43.946C257.347 43.9295 257.414 43.9162 257.463 43.9062L257.702 44.9602C257.623 44.9901 257.511 45.0199 257.369 45.0497C257.226 45.0829 257.046 45.0994 256.827 45.0994C256.496 45.0994 256.171 45.0282 255.853 44.8857C255.538 44.7431 255.276 44.526 255.067 44.2344C254.862 43.9427 254.759 43.5748 254.759 43.1307V35.5341Z" fill="white"/>
<defs>
<linearGradient id="paint0_linear_79_2428" x1="38.25" y1="15.5" x2="38.25" y2="51" gradientUnits="userSpaceOnUse">
<stop stop-color="#292929"/>
<stop offset="1" stop-color="#050505"/>
</linearGradient>
<linearGradient id="paint1_linear_79_2428" x1="24" y1="16" x2="24" y2="47.5321" gradientUnits="userSpaceOnUse">
<stop stop-color="#575757"/>
<stop offset="1" stop-color="#B4B4B4"/>
</linearGradient>
<linearGradient id="paint2_linear_79_2428" x1="37.5" y1="46" x2="37.5" y2="52" gradientUnits="userSpaceOnUse">
<stop stop-color="#434343"/>
<stop offset="1"/>
</linearGradient>
</defs>
</svg>
