<svg width="259" height="53" viewBox="0 0 259 53" fill="none" xmlns="http://www.w3.org/2000/svg">
<path opacity="0.9" d="M81.2195 10.6364H83.9602L87.6307 19.5952H87.7756L91.446 10.6364H94.1868V23H92.0376V14.506H91.9229L88.506 22.9638H86.9002L83.4833 14.4879H83.3686V23H81.2195V10.6364ZM99.1974 23.1871C98.6098 23.1871 98.0806 23.0825 97.6097 22.8732C97.1429 22.6599 96.7726 22.346 96.4989 21.9315C96.2293 21.5169 96.0945 21.0058 96.0945 20.3981C96.0945 19.8749 96.1911 19.4422 96.3842 19.1001C96.5774 18.758 96.841 18.4844 97.1751 18.2791C97.5091 18.0739 97.8854 17.9189 98.304 17.8143C98.7266 17.7056 99.1632 17.6271 99.614 17.5788C100.157 17.5225 100.598 17.4722 100.936 17.4279C101.274 17.3796 101.52 17.3072 101.673 17.2106C101.83 17.11 101.908 16.955 101.908 16.7457V16.7095C101.908 16.2547 101.773 15.9026 101.504 15.6531C101.234 15.4035 100.846 15.2788 100.338 15.2788C99.8031 15.2788 99.3786 15.3955 99.0646 15.6289C98.7547 15.8623 98.5455 16.138 98.4368 16.456L96.3963 16.1662C96.5573 15.6027 96.8229 15.1319 97.1932 14.7536C97.5634 14.3712 98.0162 14.0855 98.5515 13.8963C99.0868 13.7031 99.6784 13.6065 100.326 13.6065C100.773 13.6065 101.218 13.6589 101.661 13.7635C102.103 13.8681 102.508 14.0412 102.874 14.2827C103.24 14.5201 103.534 14.8441 103.755 15.2546C103.981 15.6651 104.093 16.1783 104.093 16.794V23H101.993V21.7262H101.92C101.787 21.9838 101.6 22.2253 101.359 22.4506C101.121 22.672 100.821 22.8511 100.459 22.9879C100.101 23.1207 99.6804 23.1871 99.1974 23.1871ZM99.7649 21.5813C100.204 21.5813 100.584 21.4948 100.906 21.3217C101.228 21.1446 101.475 20.9112 101.648 20.6214C101.826 20.3317 101.914 20.0157 101.914 19.6737V18.581C101.846 18.6373 101.729 18.6896 101.564 18.7379C101.403 18.7862 101.222 18.8285 101.021 18.8647C100.819 18.9009 100.62 18.9331 100.423 18.9613C100.226 18.9895 100.055 19.0136 99.9098 19.0337C99.5838 19.078 99.292 19.1504 99.0344 19.2511C98.7769 19.3517 98.5736 19.4925 98.4247 19.6737C98.2758 19.8507 98.2013 20.0801 98.2013 20.3619C98.2013 20.7643 98.3482 21.0682 98.642 21.2734C98.9358 21.4787 99.3101 21.5813 99.7649 21.5813ZM108.476 17.5668V23H106.291V13.7273H108.38V15.3029H108.488C108.702 14.7837 109.042 14.3712 109.509 14.0653C109.979 13.7595 110.561 13.6065 111.253 13.6065C111.893 13.6065 112.451 13.7434 112.925 14.017C113.404 14.2907 113.775 14.6871 114.036 15.2063C114.302 15.7255 114.433 16.3554 114.429 17.0959V23H112.243V17.4339C112.243 16.8142 112.082 16.3292 111.76 15.979C111.442 15.6289 111.002 15.4538 110.438 15.4538C110.056 15.4538 109.716 15.5384 109.418 15.7074C109.124 15.8724 108.893 16.1119 108.724 16.4258C108.559 16.7397 108.476 17.12 108.476 17.5668ZM121.281 13.7273V15.4176H115.95V13.7273H121.281ZM117.266 11.5057H119.451V20.2109C119.451 20.5047 119.496 20.7301 119.584 20.8871C119.677 21.04 119.797 21.1446 119.946 21.201C120.095 21.2573 120.26 21.2855 120.441 21.2855C120.578 21.2855 120.703 21.2754 120.816 21.2553C120.932 21.2352 121.021 21.2171 121.081 21.201L121.45 22.9094C121.333 22.9497 121.166 22.994 120.949 23.0423C120.735 23.0906 120.474 23.1187 120.164 23.1268C119.616 23.1429 119.123 23.0604 118.685 22.8793C118.246 22.6941 117.898 22.4084 117.64 22.022C117.387 21.6357 117.262 21.1527 117.266 20.5732V11.5057ZM123.108 23V13.7273H125.294V23H123.108ZM124.207 12.4112C123.861 12.4112 123.563 12.2965 123.313 12.0671C123.064 11.8337 122.939 11.554 122.939 11.228C122.939 10.898 123.064 10.6183 123.313 10.3888C123.563 10.1554 123.861 10.0387 124.207 10.0387C124.557 10.0387 124.855 10.1554 125.1 10.3888C125.35 10.6183 125.475 10.898 125.475 11.228C125.475 11.554 125.35 11.8337 125.1 12.0671C124.855 12.2965 124.557 12.4112 124.207 12.4112ZM134.87 16.1783L132.877 16.3956C132.821 16.1944 132.723 16.0052 132.582 15.8281C132.445 15.651 132.26 15.5082 132.026 15.3995C131.793 15.2908 131.507 15.2365 131.169 15.2365C130.714 15.2365 130.332 15.3351 130.022 15.5323C129.716 15.7295 129.565 15.9851 129.569 16.299C129.565 16.5687 129.664 16.788 129.865 16.957C130.07 17.1261 130.408 17.2649 130.879 17.3736L132.461 17.7116C133.338 17.9008 133.99 18.2006 134.417 18.6112C134.848 19.0217 135.065 19.5589 135.069 20.223C135.065 20.8066 134.894 21.3217 134.556 21.7685C134.222 22.2112 133.757 22.5573 133.161 22.8068C132.566 23.0563 131.881 23.1811 131.109 23.1811C129.974 23.1811 129.06 22.9437 128.368 22.4688C127.676 21.9898 127.263 21.3237 127.13 20.4705L129.261 20.2653C129.358 20.6838 129.563 20.9998 129.877 21.2131C130.191 21.4264 130.6 21.533 131.103 21.533C131.622 21.533 132.038 21.4264 132.352 21.2131C132.67 20.9998 132.829 20.7362 132.829 20.4222C132.829 20.1566 132.727 19.9373 132.521 19.7642C132.32 19.5911 132.006 19.4583 131.58 19.3658L129.998 19.0337C129.108 18.8486 128.45 18.5367 128.024 18.098C127.597 17.6553 127.386 17.0959 127.39 16.4197C127.386 15.8482 127.541 15.3532 127.855 14.9347C128.173 14.5121 128.613 14.1861 129.177 13.9567C129.744 13.7232 130.398 13.6065 131.139 13.6065C132.225 13.6065 133.081 13.8379 133.705 14.3008C134.332 14.7636 134.721 15.3894 134.87 16.1783ZM149.467 14.5845C149.366 14.2585 149.228 13.9667 149.05 13.7092C148.877 13.4476 148.668 13.2242 148.423 13.0391C148.181 12.8539 147.903 12.7151 147.589 12.6225C147.276 12.5259 146.933 12.4776 146.563 12.4776C145.899 12.4776 145.308 12.6446 144.788 12.9787C144.269 13.3127 143.861 13.8037 143.563 14.4517C143.269 15.0956 143.122 15.8804 143.122 16.8061C143.122 17.7398 143.269 18.5307 143.563 19.1786C143.857 19.8266 144.265 20.3196 144.788 20.6577C145.312 20.9917 145.919 21.1587 146.612 21.1587C147.239 21.1587 147.783 21.038 148.241 20.7965C148.704 20.555 149.06 20.2129 149.31 19.7702C149.56 19.3235 149.684 18.8003 149.684 18.2006L150.191 18.2791H146.835V16.5284H151.852V18.0135C151.852 19.072 151.626 19.9876 151.175 20.7603C150.725 21.533 150.105 22.1287 149.316 22.5472C148.527 22.9618 147.622 23.169 146.599 23.169C145.46 23.169 144.46 22.9135 143.599 22.4023C142.742 21.8872 142.072 21.1567 141.589 20.2109C141.11 19.2611 140.87 18.1342 140.87 16.8303C140.87 15.8321 141.011 14.9407 141.293 14.1559C141.579 13.3711 141.977 12.705 142.488 12.1577C142.999 11.6063 143.599 11.1877 144.287 10.902C144.975 10.6122 145.724 10.4673 146.533 10.4673C147.217 10.4673 147.855 10.5679 148.447 10.7692C149.038 10.9664 149.564 11.2481 150.022 11.6143C150.485 11.9806 150.866 12.4152 151.163 12.9183C151.461 13.4214 151.656 13.9768 151.749 14.5845H149.467ZM153.921 23V13.7273H156.04V15.2727H156.136C156.305 14.7375 156.595 14.3249 157.006 14.0352C157.42 13.7414 157.893 13.5945 158.424 13.5945C158.545 13.5945 158.68 13.6005 158.829 13.6126C158.982 13.6206 159.108 13.6347 159.209 13.6548V15.6651C159.117 15.6329 158.97 15.6048 158.768 15.5806C158.571 15.5524 158.38 15.5384 158.195 15.5384C157.796 15.5384 157.438 15.6249 157.12 15.7979C156.806 15.967 156.559 16.2024 156.378 16.5043C156.197 16.8061 156.106 17.1542 156.106 17.5487V23H153.921ZM164.324 23.1811C163.418 23.1811 162.634 22.9819 161.969 22.5835C161.305 22.185 160.79 21.6276 160.424 20.9112C160.062 20.1948 159.881 19.3577 159.881 18.3999C159.881 17.442 160.062 16.6029 160.424 15.8825C160.79 15.162 161.305 14.6026 161.969 14.2042C162.634 13.8058 163.418 13.6065 164.324 13.6065C165.229 13.6065 166.014 13.8058 166.678 14.2042C167.342 14.6026 167.855 15.162 168.218 15.8825C168.584 16.6029 168.767 17.442 168.767 18.3999C168.767 19.3577 168.584 20.1948 168.218 20.9112C167.855 21.6276 167.342 22.185 166.678 22.5835C166.014 22.9819 165.229 23.1811 164.324 23.1811ZM164.336 21.4304C164.827 21.4304 165.237 21.2956 165.567 21.0259C165.897 20.7522 166.143 20.386 166.304 19.9272C166.469 19.4684 166.551 18.9573 166.551 18.3938C166.551 17.8263 166.469 17.3132 166.304 16.8544C166.143 16.3916 165.897 16.0233 165.567 15.7496C165.237 15.476 164.827 15.3391 164.336 15.3391C163.833 15.3391 163.414 15.476 163.08 15.7496C162.75 16.0233 162.503 16.3916 162.338 16.8544C162.177 17.3132 162.096 17.8263 162.096 18.3938C162.096 18.9573 162.177 19.4684 162.338 19.9272C162.503 20.386 162.75 20.7522 163.08 21.0259C163.414 21.2956 163.833 21.4304 164.336 21.4304ZM176.532 19.1001V13.7273H178.717V23H176.598V21.3519H176.502C176.293 21.8711 175.948 22.2957 175.47 22.6257C174.995 22.9557 174.409 23.1207 173.713 23.1207C173.105 23.1207 172.568 22.9859 172.101 22.7163C171.638 22.4426 171.276 22.0462 171.014 21.527C170.753 21.0038 170.622 20.3719 170.622 19.6314V13.7273H172.807V19.2933C172.807 19.8809 172.968 20.3478 173.29 20.6939C173.612 21.04 174.035 21.2131 174.558 21.2131C174.88 21.2131 175.192 21.1346 175.494 20.9776C175.796 20.8207 176.043 20.5872 176.236 20.2773C176.433 19.9634 176.532 19.571 176.532 19.1001ZM180.965 26.4773V13.7273H183.114V15.2607H183.241C183.353 15.0353 183.512 14.7958 183.718 14.5423C183.923 14.2847 184.2 14.0653 184.551 13.8842C184.901 13.6991 185.347 13.6065 185.891 13.6065C186.607 13.6065 187.253 13.7897 187.829 14.1559C188.408 14.5181 188.867 15.0554 189.205 15.7678C189.547 16.4761 189.718 17.3454 189.718 18.3757C189.718 19.3939 189.551 20.2592 189.217 20.9716C188.883 21.6839 188.428 22.2273 187.853 22.6016C187.277 22.9759 186.625 23.163 185.897 23.163C185.366 23.163 184.925 23.0745 184.575 22.8974C184.225 22.7203 183.943 22.507 183.73 22.2575C183.52 22.0039 183.357 21.7644 183.241 21.5391H183.15V26.4773H180.965ZM183.108 18.3636C183.108 18.9633 183.192 19.4885 183.361 19.9393C183.534 20.39 183.782 20.7422 184.104 20.9957C184.43 21.2453 184.824 21.37 185.287 21.37C185.77 21.37 186.175 21.2412 186.501 20.9837C186.827 20.7221 187.072 20.3659 187.237 19.9151C187.406 19.4603 187.491 18.9432 187.491 18.3636C187.491 17.7881 187.408 17.277 187.243 16.8303C187.078 16.3835 186.833 16.0334 186.507 15.7798C186.181 15.5263 185.774 15.3995 185.287 15.3995C184.82 15.3995 184.424 15.5223 184.098 15.7678C183.772 16.0133 183.524 16.3574 183.355 16.8001C183.19 17.2428 183.108 17.764 183.108 18.3636Z" fill="black"/>
<path opacity="0.3" d="M81.233 43V32.8182H84.6733C85.4688 32.8182 86.1217 32.9541 86.6321 33.2259C87.1425 33.4943 87.5204 33.8639 87.7656 34.3345C88.0109 34.8052 88.1335 35.3404 88.1335 35.9403C88.1335 36.5402 88.0109 37.0722 87.7656 37.5362C87.5204 38.0002 87.1442 38.3648 86.6371 38.63C86.13 38.8918 85.482 39.0227 84.6932 39.0227H81.9091V37.9091H84.6534C85.197 37.9091 85.6345 37.8295 85.9659 37.6705C86.3007 37.5114 86.5426 37.286 86.6918 36.9943C86.8442 36.6993 86.9205 36.348 86.9205 35.9403C86.9205 35.5327 86.8442 35.1764 86.6918 34.8714C86.5393 34.5665 86.2957 34.3312 85.9609 34.1655C85.6262 33.9964 85.1837 33.9119 84.6335 33.9119H82.4659V43H81.233ZM86.0256 38.4261L88.5312 43H87.0994L84.6335 38.4261H86.0256ZM93.1486 43.1591C92.4128 43.1591 91.7781 42.9967 91.2445 42.6719C90.7142 42.3438 90.3049 41.8864 90.0165 41.2997C89.7315 40.7098 89.589 40.0237 89.589 39.2415C89.589 38.4593 89.7315 37.7699 90.0165 37.1733C90.3049 36.5734 90.7059 36.1061 91.2196 35.7713C91.7367 35.4332 92.3399 35.2642 93.0293 35.2642C93.427 35.2642 93.8198 35.3305 94.2076 35.4631C94.5953 35.5956 94.9483 35.8111 95.2665 36.1094C95.5847 36.4044 95.8382 36.7955 96.0272 37.2827C96.2161 37.7699 96.3105 38.3698 96.3105 39.0824V39.5795H90.4242V38.5653H95.1174C95.1174 38.1345 95.0312 37.75 94.8588 37.4119C94.6898 37.0739 94.4479 36.8071 94.133 36.6115C93.8214 36.416 93.4535 36.3182 93.0293 36.3182C92.562 36.3182 92.1576 36.4342 91.8162 36.6662C91.4782 36.8949 91.218 37.1932 91.0357 37.5611C90.8534 37.929 90.7623 38.3234 90.7623 38.7443V39.4205C90.7623 39.9972 90.8617 40.486 91.0605 40.8871C91.2627 41.2848 91.5428 41.5881 91.9007 41.7969C92.2587 42.0024 92.6747 42.1051 93.1486 42.1051C93.4569 42.1051 93.7353 42.062 93.9838 41.9759C94.2357 41.8864 94.4528 41.7538 94.6351 41.5781C94.8174 41.3991 94.9583 41.1771 95.0577 40.9119L96.1912 41.2301C96.0719 41.6146 95.8714 41.9527 95.5897 42.2443C95.3079 42.5327 94.9599 42.758 94.5456 42.9205C94.1313 43.0795 93.6657 43.1591 93.1486 43.1591ZM100.343 43.179C99.8586 43.179 99.4194 43.0878 99.025 42.9055C98.6306 42.7199 98.3174 42.4531 98.0854 42.1051C97.8534 41.7538 97.7374 41.3295 97.7374 40.8324C97.7374 40.3949 97.8236 40.0402 97.9959 39.7685C98.1683 39.4934 98.3986 39.2779 98.687 39.1222C98.9753 38.9664 99.2935 38.8504 99.6415 38.7741C99.9928 38.6946 100.346 38.6316 100.7 38.5852C101.164 38.5256 101.541 38.4808 101.829 38.451C102.121 38.4179 102.333 38.3632 102.465 38.2869C102.601 38.2107 102.669 38.0781 102.669 37.8892V37.8494C102.669 37.3589 102.535 36.9777 102.267 36.706C102.001 36.4342 101.599 36.2983 101.058 36.2983C100.498 36.2983 100.059 36.4209 99.7409 36.6662C99.4228 36.9115 99.199 37.1733 99.0698 37.4517L97.9561 37.054C98.155 36.59 98.4202 36.2287 98.7516 35.9702C99.0864 35.7083 99.4509 35.526 99.8453 35.4233C100.243 35.3172 100.634 35.2642 101.019 35.2642C101.264 35.2642 101.546 35.294 101.864 35.3537C102.185 35.41 102.495 35.5277 102.794 35.7067C103.095 35.8857 103.345 36.1558 103.544 36.517C103.743 36.8783 103.843 37.3622 103.843 37.9688V43H102.669V41.9659H102.61C102.53 42.1316 102.397 42.3089 102.212 42.4979C102.026 42.6868 101.779 42.8475 101.471 42.9801C101.163 43.1127 100.787 43.179 100.343 43.179ZM100.521 42.125C100.985 42.125 101.377 42.0339 101.695 41.8516C102.016 41.6693 102.258 41.4339 102.421 41.1456C102.586 40.8572 102.669 40.554 102.669 40.2358V39.1619C102.619 39.2216 102.51 39.2763 102.341 39.326C102.175 39.3724 101.983 39.4138 101.764 39.4503C101.549 39.4834 101.338 39.5133 101.133 39.5398C100.931 39.563 100.767 39.5829 100.641 39.5994C100.336 39.6392 100.051 39.7038 99.7857 39.7933C99.5239 39.8795 99.3117 40.0104 99.1493 40.1861C98.9902 40.3584 98.9107 40.5937 98.9107 40.892C98.9107 41.2997 99.0615 41.608 99.3631 41.8168C99.668 42.0223 100.054 42.125 100.521 42.125ZM107.157 32.8182V43H105.984V32.8182H107.157ZM113.403 43V32.8182H119.548V33.9119H114.636V37.3523H119.23V38.446H114.636V41.9062H119.627V43H113.403ZM127.02 37.0739L125.966 37.3722C125.9 37.1965 125.802 37.0258 125.673 36.8601C125.547 36.6911 125.374 36.5518 125.156 36.4425C124.937 36.3331 124.657 36.2784 124.316 36.2784C123.848 36.2784 123.459 36.3861 123.147 36.6016C122.839 36.8137 122.685 37.0838 122.685 37.4119C122.685 37.7036 122.791 37.9339 123.003 38.103C123.215 38.272 123.547 38.4129 123.997 38.5256L125.131 38.804C125.814 38.9697 126.322 39.2232 126.657 39.5646C126.992 39.9027 127.159 40.3385 127.159 40.8722C127.159 41.3097 127.033 41.7008 126.781 42.0455C126.533 42.3902 126.185 42.6619 125.737 42.8608C125.29 43.0597 124.77 43.1591 124.176 43.1591C123.397 43.1591 122.753 42.9901 122.242 42.652C121.732 42.3139 121.409 41.8201 121.273 41.1705L122.387 40.892C122.493 41.303 122.693 41.6113 122.988 41.8168C123.286 42.0223 123.676 42.125 124.156 42.125C124.703 42.125 125.137 42.009 125.459 41.777C125.784 41.5417 125.946 41.2599 125.946 40.9318C125.946 40.6667 125.853 40.4446 125.668 40.2656C125.482 40.0833 125.197 39.9474 124.813 39.858L123.54 39.5597C122.841 39.3939 122.327 39.1371 121.999 38.7891C121.674 38.4377 121.512 37.9986 121.512 37.4716C121.512 37.0407 121.633 36.6596 121.874 36.3281C122.12 35.9967 122.453 35.7365 122.874 35.5476C123.298 35.3587 123.779 35.2642 124.316 35.2642C125.071 35.2642 125.664 35.4299 126.095 35.7614C126.53 36.0928 126.838 36.5303 127.02 37.0739ZM132.246 35.3636V36.358H128.289V35.3636H132.246ZM129.442 33.5341H130.616V40.8125C130.616 41.1439 130.664 41.3925 130.76 41.5582C130.859 41.7206 130.985 41.83 131.138 41.8864C131.294 41.9394 131.458 41.9659 131.63 41.9659C131.759 41.9659 131.865 41.9593 131.948 41.946C132.031 41.9295 132.097 41.9162 132.147 41.9062L132.386 42.9602C132.306 42.9901 132.195 43.0199 132.053 43.0497C131.91 43.0829 131.729 43.0994 131.511 43.0994C131.179 43.0994 130.854 43.0282 130.536 42.8857C130.221 42.7431 129.96 42.526 129.751 42.2344C129.545 41.9427 129.442 41.5748 129.442 41.1307V33.5341ZM136.259 43.179C135.775 43.179 135.335 43.0878 134.941 42.9055C134.547 42.7199 134.233 42.4531 134.001 42.1051C133.769 41.7538 133.653 41.3295 133.653 40.8324C133.653 40.3949 133.74 40.0402 133.912 39.7685C134.084 39.4934 134.315 39.2779 134.603 39.1222C134.891 38.9664 135.21 38.8504 135.558 38.7741C135.909 38.6946 136.262 38.6316 136.616 38.5852C137.08 38.5256 137.457 38.4808 137.745 38.451C138.037 38.4179 138.249 38.3632 138.381 38.2869C138.517 38.2107 138.585 38.0781 138.585 37.8892V37.8494C138.585 37.3589 138.451 36.9777 138.183 36.706C137.917 36.4342 137.515 36.2983 136.974 36.2983C136.414 36.2983 135.975 36.4209 135.657 36.6662C135.339 36.9115 135.115 37.1733 134.986 37.4517L133.872 37.054C134.071 36.59 134.336 36.2287 134.668 35.9702C135.002 35.7083 135.367 35.526 135.761 35.4233C136.159 35.3172 136.55 35.2642 136.935 35.2642C137.18 35.2642 137.462 35.294 137.78 35.3537C138.101 35.41 138.411 35.5277 138.71 35.7067C139.011 35.8857 139.261 36.1558 139.46 36.517C139.659 36.8783 139.759 37.3622 139.759 37.9688V43H138.585V41.9659H138.526C138.446 42.1316 138.313 42.3089 138.128 42.4979C137.942 42.6868 137.695 42.8475 137.387 42.9801C137.079 43.1127 136.703 43.179 136.259 43.179ZM136.438 42.125C136.902 42.125 137.293 42.0339 137.611 41.8516C137.932 41.6693 138.174 41.4339 138.337 41.1456C138.502 40.8572 138.585 40.554 138.585 40.2358V39.1619C138.536 39.2216 138.426 39.2763 138.257 39.326C138.091 39.3724 137.899 39.4138 137.68 39.4503C137.465 39.4834 137.254 39.5133 137.049 39.5398C136.847 39.563 136.683 39.5829 136.557 39.5994C136.252 39.6392 135.967 39.7038 135.702 39.7933C135.44 39.8795 135.228 40.0104 135.065 40.1861C134.906 40.3584 134.827 40.5937 134.827 40.892C134.827 41.2997 134.978 41.608 135.279 41.8168C135.584 42.0223 135.97 42.125 136.438 42.125ZM145.221 35.3636V36.358H141.264V35.3636H145.221ZM142.417 33.5341H143.59V40.8125C143.59 41.1439 143.638 41.3925 143.735 41.5582C143.834 41.7206 143.96 41.83 144.112 41.8864C144.268 41.9394 144.432 41.9659 144.605 41.9659C144.734 41.9659 144.84 41.9593 144.923 41.946C145.006 41.9295 145.072 41.9162 145.122 41.9062L145.36 42.9602C145.281 42.9901 145.17 43.0199 145.027 43.0497C144.885 43.0829 144.704 43.0994 144.485 43.0994C144.154 43.0994 143.829 43.0282 143.511 42.8857C143.196 42.7431 142.934 42.526 142.725 42.2344C142.52 41.9427 142.417 41.5748 142.417 41.1307V33.5341ZM150.106 43.1591C149.37 43.1591 148.735 42.9967 148.202 42.6719C147.671 42.3438 147.262 41.8864 146.974 41.2997C146.689 40.7098 146.546 40.0237 146.546 39.2415C146.546 38.4593 146.689 37.7699 146.974 37.1733C147.262 36.5734 147.663 36.1061 148.177 35.7713C148.694 35.4332 149.297 35.2642 149.986 35.2642C150.384 35.2642 150.777 35.3305 151.165 35.4631C151.552 35.5956 151.905 35.8111 152.224 36.1094C152.542 36.4044 152.795 36.7955 152.984 37.2827C153.173 37.7699 153.268 38.3698 153.268 39.0824V39.5795H147.381V38.5653H152.074C152.074 38.1345 151.988 37.75 151.816 37.4119C151.647 37.0739 151.405 36.8071 151.09 36.6115C150.778 36.416 150.411 36.3182 149.986 36.3182C149.519 36.3182 149.115 36.4342 148.773 36.6662C148.435 36.8949 148.175 37.1932 147.993 37.5611C147.81 37.929 147.719 38.3234 147.719 38.7443V39.4205C147.719 39.9972 147.819 40.486 148.018 40.8871C148.22 41.2848 148.5 41.5881 148.858 41.7969C149.216 42.0024 149.632 42.1051 150.106 42.1051C150.414 42.1051 150.692 42.062 150.941 41.9759C151.193 41.8864 151.41 41.7538 151.592 41.5781C151.774 41.3991 151.915 41.1771 152.015 40.9119L153.148 41.2301C153.029 41.6146 152.828 41.9527 152.547 42.2443C152.265 42.5327 151.917 42.758 151.503 42.9205C151.088 43.0795 150.623 43.1591 150.106 43.1591ZM161.873 43.1392C161.204 43.1392 160.627 43.0166 160.143 42.7713C159.659 42.526 159.287 42.1896 159.025 41.7621C158.763 41.3345 158.632 40.8456 158.632 40.2955C158.632 39.8712 158.721 39.495 158.9 39.1669C159.083 38.8355 159.333 38.5289 159.651 38.2472C159.973 37.9621 160.342 37.6771 160.76 37.392L162.231 36.2983C162.52 36.1094 162.75 35.9072 162.922 35.6918C163.098 35.4763 163.186 35.1946 163.186 34.8466C163.186 34.5881 163.072 34.3378 162.843 34.0959C162.617 33.8539 162.321 33.733 161.953 33.733C161.694 33.733 161.466 33.7992 161.267 33.9318C161.071 34.0611 160.917 34.2268 160.805 34.429C160.695 34.6278 160.64 34.8333 160.64 35.0455C160.64 35.2841 160.705 35.526 160.834 35.7713C160.967 36.0133 161.134 36.2618 161.336 36.517C161.542 36.7689 161.754 37.0275 161.973 37.2926L166.646 43H165.234L161.376 38.3466C161.018 37.9157 160.693 37.5246 160.402 37.1733C160.11 36.822 159.878 36.4756 159.706 36.1342C159.533 35.7929 159.447 35.4233 159.447 35.0256C159.447 34.5682 159.548 34.1671 159.751 33.8224C159.956 33.4744 160.243 33.2043 160.611 33.0121C160.982 32.8165 161.416 32.7188 161.913 32.7188C162.424 32.7188 162.863 32.8182 163.231 33.017C163.599 33.2126 163.882 33.4728 164.081 33.7976C164.28 34.1191 164.379 34.4688 164.379 34.8466C164.379 35.3338 164.258 35.7564 164.016 36.1143C163.774 36.4723 163.444 36.8054 163.027 37.1136L160.998 38.625C160.541 38.9631 160.231 39.2912 160.069 39.6094C159.906 39.9276 159.825 40.1562 159.825 40.2955C159.825 40.6136 159.908 40.9103 160.074 41.1854C160.239 41.4605 160.473 41.6825 160.775 41.8516C161.076 42.0206 161.429 42.1051 161.834 42.1051C162.218 42.1051 162.593 42.0239 162.957 41.8615C163.322 41.6958 163.652 41.4571 163.947 41.1456C164.245 40.834 164.48 40.4595 164.653 40.022C164.828 39.5845 164.916 39.0923 164.916 38.5455H166.05C166.05 39.2216 165.972 39.7734 165.816 40.201C165.66 40.6286 165.484 40.9633 165.289 41.2053C165.093 41.4472 164.936 41.6278 164.817 41.7472C164.777 41.7969 164.74 41.8466 164.707 41.8963C164.674 41.946 164.638 41.9957 164.598 42.0455C164.27 42.4134 163.855 42.6884 163.355 42.8707C162.854 43.0497 162.361 43.1392 161.873 43.1392ZM175.184 43H172.042V32.8182H175.323C176.31 32.8182 177.156 33.022 177.858 33.4297C178.561 33.834 179.1 34.4157 179.474 35.1747C179.849 35.9304 180.036 36.8352 180.036 37.8892C180.036 38.9498 179.847 39.8629 179.469 40.6286C179.091 41.3909 178.541 41.9775 177.819 42.3885C177.096 42.7962 176.218 43 175.184 43ZM173.275 41.9062H175.104C175.946 41.9062 176.644 41.7438 177.197 41.419C177.751 41.0942 178.163 40.6319 178.435 40.032C178.707 39.4321 178.843 38.7178 178.843 37.8892C178.843 37.0672 178.708 36.3596 178.44 35.7663C178.172 35.1697 177.77 34.7124 177.237 34.3942C176.703 34.0727 176.039 33.9119 175.243 33.9119H173.275V41.9062ZM185.147 43.1591C184.411 43.1591 183.776 42.9967 183.243 42.6719C182.712 42.3438 182.303 41.8864 182.015 41.2997C181.73 40.7098 181.587 40.0237 181.587 39.2415C181.587 38.4593 181.73 37.7699 182.015 37.1733C182.303 36.5734 182.704 36.1061 183.218 35.7713C183.735 35.4332 184.338 35.2642 185.027 35.2642C185.425 35.2642 185.818 35.3305 186.206 35.4631C186.593 35.5956 186.946 35.8111 187.265 36.1094C187.583 36.4044 187.836 36.7955 188.025 37.2827C188.214 37.7699 188.309 38.3698 188.309 39.0824V39.5795H182.422V38.5653H187.115C187.115 38.1345 187.029 37.75 186.857 37.4119C186.688 37.0739 186.446 36.8071 186.131 36.6115C185.819 36.416 185.452 36.3182 185.027 36.3182C184.56 36.3182 184.156 36.4342 183.814 36.6662C183.476 36.8949 183.216 37.1932 183.034 37.5611C182.851 37.929 182.76 38.3234 182.76 38.7443V39.4205C182.76 39.9972 182.86 40.486 183.059 40.8871C183.261 41.2848 183.541 41.5881 183.899 41.7969C184.257 42.0024 184.673 42.1051 185.147 42.1051C185.455 42.1051 185.733 42.062 185.982 41.9759C186.234 41.8864 186.451 41.7538 186.633 41.5781C186.815 41.3991 186.956 41.1771 187.056 40.9119L188.189 41.2301C188.07 41.6146 187.869 41.9527 187.588 42.2443C187.306 42.5327 186.958 42.758 186.544 42.9205C186.129 43.0795 185.664 43.1591 185.147 43.1591ZM196.105 35.3636L193.281 43H192.088L189.264 35.3636H190.537L192.645 41.4489H192.725L194.833 35.3636H196.105ZM200.582 43.1591C199.846 43.1591 199.212 42.9967 198.678 42.6719C198.148 42.3438 197.738 41.8864 197.45 41.2997C197.165 40.7098 197.023 40.0237 197.023 39.2415C197.023 38.4593 197.165 37.7699 197.45 37.1733C197.738 36.5734 198.14 36.1061 198.653 35.7713C199.17 35.4332 199.773 35.2642 200.463 35.2642C200.861 35.2642 201.253 35.3305 201.641 35.4631C202.029 35.5956 202.382 35.8111 202.7 36.1094C203.018 36.4044 203.272 36.7955 203.461 37.2827C203.65 37.7699 203.744 38.3698 203.744 39.0824V39.5795H197.858V38.5653H202.551C202.551 38.1345 202.465 37.75 202.292 37.4119C202.123 37.0739 201.881 36.8071 201.567 36.6115C201.255 36.416 200.887 36.3182 200.463 36.3182C199.996 36.3182 199.591 36.4342 199.25 36.6662C198.912 36.8949 198.652 37.1932 198.469 37.5611C198.287 37.929 198.196 38.3234 198.196 38.7443V39.4205C198.196 39.9972 198.295 40.486 198.494 40.8871C198.696 41.2848 198.976 41.5881 199.334 41.7969C199.692 42.0024 200.108 42.1051 200.582 42.1051C200.89 42.1051 201.169 42.062 201.417 41.9759C201.669 41.8864 201.886 41.7538 202.069 41.5781C202.251 41.3991 202.392 41.1771 202.491 40.9119L203.625 41.2301C203.506 41.6146 203.305 41.9527 203.023 42.2443C202.742 42.5327 202.394 42.758 201.979 42.9205C201.565 43.0795 201.099 43.1591 200.582 43.1591ZM206.702 32.8182V43H205.529V32.8182H206.702ZM211.953 43.1591C211.264 43.1591 210.659 42.995 210.139 42.6669C209.622 42.3388 209.217 41.8797 208.926 41.2898C208.637 40.6998 208.493 40.0104 208.493 39.2216C208.493 38.4261 208.637 37.7318 208.926 37.1385C209.217 36.5452 209.622 36.0845 210.139 35.7564C210.659 35.4283 211.264 35.2642 211.953 35.2642C212.643 35.2642 213.246 35.4283 213.763 35.7564C214.283 36.0845 214.688 36.5452 214.976 37.1385C215.268 37.7318 215.414 38.4261 215.414 39.2216C215.414 40.0104 215.268 40.6998 214.976 41.2898C214.688 41.8797 214.283 42.3388 213.763 42.6669C213.246 42.995 212.643 43.1591 211.953 43.1591ZM211.953 42.1051C212.477 42.1051 212.908 41.9709 213.246 41.7024C213.584 41.4339 213.834 41.081 213.997 40.6435C214.159 40.206 214.24 39.732 214.24 39.2216C214.24 38.7112 214.159 38.2356 213.997 37.7947C213.834 37.3539 213.584 36.9976 213.246 36.7259C212.908 36.4541 212.477 36.3182 211.953 36.3182C211.43 36.3182 210.999 36.4541 210.661 36.7259C210.323 36.9976 210.073 37.3539 209.91 37.7947C209.748 38.2356 209.667 38.7112 209.667 39.2216C209.667 39.732 209.748 40.206 209.91 40.6435C210.073 41.081 210.323 41.4339 210.661 41.7024C210.999 41.9709 211.43 42.1051 211.953 42.1051ZM217.205 45.8636V35.3636H218.338V36.5767H218.477C218.564 36.4441 218.683 36.2751 218.835 36.0696C218.991 35.8608 219.213 35.6752 219.502 35.5128C219.793 35.3471 220.188 35.2642 220.685 35.2642C221.328 35.2642 221.895 35.425 222.385 35.7464C222.876 36.0679 223.258 36.5237 223.534 37.1136C223.809 37.7036 223.946 38.3996 223.946 39.2017C223.946 40.0104 223.809 40.7114 223.534 41.3047C223.258 41.8946 222.877 42.352 222.39 42.6768C221.903 42.9983 221.341 43.1591 220.705 43.1591C220.214 43.1591 219.821 43.0779 219.526 42.9155C219.231 42.7498 219.004 42.5625 218.845 42.3537C218.686 42.1416 218.564 41.9659 218.477 41.8267H218.378V45.8636H217.205ZM218.358 39.1818C218.358 39.7585 218.443 40.2673 218.612 40.7081C218.781 41.1456 219.028 41.4886 219.352 41.7372C219.677 41.9825 220.075 42.1051 220.546 42.1051C221.036 42.1051 221.445 41.9759 221.774 41.7173C222.105 41.4555 222.354 41.1042 222.519 40.6634C222.688 40.2192 222.773 39.7254 222.773 39.1818C222.773 38.6449 222.69 38.161 222.524 37.7301C222.362 37.2959 222.115 36.9529 221.784 36.701C221.455 36.4458 221.043 36.3182 220.546 36.3182C220.068 36.3182 219.667 36.4392 219.343 36.6811C219.018 36.9197 218.772 37.2545 218.607 37.6854C218.441 38.1129 218.358 38.6117 218.358 39.1818ZM225.736 43V35.3636H226.869V36.5568H226.969C227.128 36.1491 227.385 35.8326 227.74 35.6072C228.094 35.3786 228.52 35.2642 229.017 35.2642C229.521 35.2642 229.94 35.3786 230.275 35.6072C230.613 35.8326 230.877 36.1491 231.066 36.5568H231.145C231.341 36.1624 231.634 35.8492 232.025 35.6172C232.416 35.3819 232.885 35.2642 233.432 35.2642C234.115 35.2642 234.673 35.478 235.107 35.9055C235.542 36.3298 235.759 36.991 235.759 37.8892V43H234.585V37.8892C234.585 37.3258 234.431 36.9231 234.123 36.6811C233.815 36.4392 233.452 36.3182 233.034 36.3182C232.497 36.3182 232.081 36.4806 231.786 36.8054C231.491 37.1269 231.344 37.5346 231.344 38.0284V43H230.151V37.7699C230.151 37.3357 230.01 36.986 229.728 36.7209C229.446 36.4524 229.084 36.3182 228.639 36.3182C228.334 36.3182 228.049 36.3994 227.784 36.5618C227.522 36.7242 227.31 36.9496 227.148 37.2379C226.989 37.523 226.909 37.8527 226.909 38.2273V43H225.736ZM241.106 43.1591C240.37 43.1591 239.735 42.9967 239.202 42.6719C238.671 42.3438 238.262 41.8864 237.974 41.2997C237.689 40.7098 237.546 40.0237 237.546 39.2415C237.546 38.4593 237.689 37.7699 237.974 37.1733C238.262 36.5734 238.663 36.1061 239.177 35.7713C239.694 35.4332 240.297 35.2642 240.986 35.2642C241.384 35.2642 241.777 35.3305 242.165 35.4631C242.552 35.5956 242.905 35.8111 243.224 36.1094C243.542 36.4044 243.795 36.7955 243.984 37.2827C244.173 37.7699 244.268 38.3698 244.268 39.0824V39.5795H238.381V38.5653H243.074C243.074 38.1345 242.988 37.75 242.816 37.4119C242.647 37.0739 242.405 36.8071 242.09 36.6115C241.778 36.416 241.411 36.3182 240.986 36.3182C240.519 36.3182 240.115 36.4342 239.773 36.6662C239.435 36.8949 239.175 37.1932 238.993 37.5611C238.81 37.929 238.719 38.3234 238.719 38.7443V39.4205C238.719 39.9972 238.819 40.486 239.018 40.8871C239.22 41.2848 239.5 41.5881 239.858 41.7969C240.216 42.0024 240.632 42.1051 241.106 42.1051C241.414 42.1051 241.692 42.062 241.941 41.9759C242.193 41.8864 242.41 41.7538 242.592 41.5781C242.774 41.3991 242.915 41.1771 243.015 40.9119L244.148 41.2301C244.029 41.6146 243.828 41.9527 243.547 42.2443C243.265 42.5327 242.917 42.758 242.503 42.9205C242.088 43.0795 241.623 43.1591 241.106 43.1591ZM247.226 38.4062V43H246.052V35.3636H247.186V36.5568H247.285C247.464 36.169 247.736 35.8575 248.101 35.6222C248.465 35.3835 248.936 35.2642 249.513 35.2642C250.03 35.2642 250.482 35.3703 250.87 35.5824C251.258 35.7912 251.559 36.1094 251.775 36.5369C251.99 36.9612 252.098 37.4981 252.098 38.1477V43H250.925V38.2273C250.925 37.6274 250.769 37.16 250.457 36.8253C250.146 36.4872 249.718 36.3182 249.175 36.3182C248.8 36.3182 248.465 36.3994 248.17 36.5618C247.879 36.7242 247.648 36.9612 247.479 37.2727C247.31 37.5843 247.226 37.9621 247.226 38.4062ZM257.563 35.3636V36.358H253.605V35.3636H257.563ZM254.759 33.5341H255.932V40.8125C255.932 41.1439 255.98 41.3925 256.076 41.5582C256.176 41.7206 256.302 41.83 256.454 41.8864C256.61 41.9394 256.774 41.9659 256.946 41.9659C257.076 41.9659 257.182 41.9593 257.265 41.946C257.347 41.9295 257.414 41.9162 257.463 41.9062L257.702 42.9602C257.623 42.9901 257.511 43.0199 257.369 43.0497C257.226 43.0829 257.046 43.0994 256.827 43.0994C256.496 43.0994 256.171 43.0282 255.853 42.8857C255.538 42.7431 255.276 42.526 255.067 42.2344C254.862 41.9427 254.759 41.5748 254.759 41.1307V33.5341Z" fill="black"/>
<path d="M12.5599 51C11.4322 51 10.5275 50.0682 10.5607 48.941L10.9687 35.1133C10.9883 34.45 11.3356 33.8396 11.8958 33.4839L29.072 22.5779C29.6499 22.211 30 21.5741 30 20.8895V7.04884C30 6.35696 30.3576 5.71422 30.9455 5.34942L36.9163 1.64448C37.5539 1.24885 38.3593 1.2434 39.0022 1.63037L54.0371 10.6801C54.6382 11.0419 55.0057 11.6922 55.0057 12.3937V18.6181C55.0057 19.2845 55.3376 19.9071 55.8908 20.2785L58.0396 21.7215C58.5928 22.0929 58.9247 22.7155 58.9247 23.3819V32.9258C58.9247 33.6813 59.3503 34.3723 60.025 34.7121L64.141 36.785C64.7913 37.1125 65.2122 37.7674 65.24 38.495L65.6382 48.9237C65.6815 50.0574 64.7741 51 63.6396 51H12.5599Z" fill="url(#paint0_linear_0_1)"/>
<path d="M20 53C18.8954 53 18 52.1046 18 51V25.6154C18 24.9261 18.3549 24.2854 18.9392 23.9199L26.9392 18.9149C28.2713 18.0815 30 19.0391 30 20.6104V51C30 52.1046 29.1046 53 28 53H20Z" fill="url(#paint1_linear_0_1)"/>
<path d="M36 3.32677C36 1.81846 37.606 0.852953 38.9381 1.56043L53.9381 9.52694C54.5915 9.87398 55 10.5534 55 11.2933V49C55 50.1046 54.1046 51 53 51H38C36.8954 51 36 50.1046 36 49V3.32677Z" fill="#00AEF0"/>
<path d="M48 19.1303C48 18.6962 48.5151 18.4683 48.8363 18.7603C48.9406 18.8551 49 18.9894 49 19.1303V21.8697C49 22.3038 48.4849 22.5317 48.1637 22.2397C48.0594 22.1449 48 22.0106 48 21.8697V19.1303Z" fill="white"/>
<path d="M43 17.1303C43 16.6962 43.5151 16.4683 43.8363 16.7603C43.9406 16.8551 44 16.9894 44 17.1303V19.8697C44 20.3038 43.4849 20.5317 43.1637 20.2397C43.0594 20.1449 43 20.0106 43 19.8697V17.1303Z" fill="white"/>
<path d="M48 26.1303C48 25.6962 48.5151 25.4683 48.8363 25.7603C48.9406 25.8551 49 25.9894 49 26.1303V28.8697C49 29.3038 48.4849 29.5317 48.1637 29.2397C48.0594 29.1449 48 29.0106 48 28.8697V26.1303Z" fill="white"/>
<path d="M43 24.1303C43 23.6962 43.5151 23.4683 43.8363 23.7603C43.9406 23.8551 44 23.9894 44 24.1303V26.8697C44 27.3038 43.4849 27.5317 43.1637 27.2397C43.0594 27.1449 43 27.0106 43 26.8697V24.1303Z" fill="white"/>
<path d="M43 31.1303C43 30.6962 43.5151 30.4683 43.8363 30.7603C43.9406 30.8551 44 30.9894 44 31.1303V33.8697C44 34.3038 43.4849 34.5317 43.1637 34.2397C43.0594 34.1449 43 34.0106 43 33.8697V31.1303Z" fill="white"/>
<path d="M48 33.1303C48 32.6962 48.5151 32.4683 48.8363 32.7603C48.9406 32.8551 49 32.9894 49 33.1303V35.8697C49 36.3038 48.4849 36.5317 48.1637 36.2397C48.0594 36.1449 48 36.0106 48 35.8697V33.1303Z" fill="white"/>
<path d="M37.5 46C14.8897 46 0 53 0 53H75C75 53 60.1103 46 37.5 46Z" fill="white"/>
<path d="M3 52C3 52 16.6985 46 37.5 46C58.3015 46 72 52 72 52" stroke="url(#paint2_linear_0_1)" stroke-linecap="round"/>
<defs>
<linearGradient id="paint0_linear_0_1" x1="38.25" y1="15.5" x2="38.25" y2="51" gradientUnits="userSpaceOnUse">
<stop stop-color="#D2D2D2"/>
<stop offset="1" stop-color="#F3F3F3"/>
</linearGradient>
<linearGradient id="paint1_linear_0_1" x1="24" y1="16" x2="24" y2="47.5321" gradientUnits="userSpaceOnUse">
<stop stop-color="#575757"/>
<stop offset="1" stop-color="#B4B4B4"/>
</linearGradient>
<linearGradient id="paint2_linear_0_1" x1="37.5" y1="46" x2="37.5" y2="52" gradientUnits="userSpaceOnUse">
<stop stop-color="#B3B3B3"/>
<stop offset="1" stop-color="#FDFDFD"/>
</linearGradient>
</defs>
</svg>
