<svg width="69" height="53" viewBox="0 0 69 53" fill="none" xmlns="http://www.w3.org/2000/svg">
<path opacity="0.9" d="M31.1203 0.181814V15.1051C31.1203 19.3968 30.2912 23.8591 28.6331 28.4922C27.0237 33.0765 24.8047 37.4657 21.9761 41.6598C19.1475 45.8052 15.9288 49.3653 12.3199 52.3402L0.0300961 44.3665C2.71239 40.3186 5.0533 35.9538 7.05282 31.272C9.05235 26.5414 10.0521 21.2012 10.0521 15.2514V0.181814H31.1203ZM68.0628 0.181814V15.1051C68.0628 19.3968 67.2337 23.8591 65.5756 28.4922C63.9662 33.0765 61.7472 37.4657 58.9186 41.6598C56.09 45.8052 52.8956 49.3653 49.3355 52.3402L37.0457 44.3665C39.6792 40.3186 41.9958 35.9538 43.9953 31.272C45.9948 26.5414 46.9946 21.2012 46.9946 15.2514V0.181814H68.0628Z" fill="#00AEF0"/>
</svg>
